<svg width="32" height="32" viewBox="0 0 32 32" fill="none" xmlns="http://www.w3.org/2000/svg">
<path d="M7 1.5H20.5859C20.7185 1.50004 20.8457 1.55275 20.9395 1.64648L26.3535 7.06055C26.4472 7.15428 26.5 7.28151 26.5 7.41406V29C26.5 29.8284 25.8284 30.5 25 30.5H7C6.17157 30.5 5.5 29.8284 5.5 29V3C5.5 2.17157 6.17157 1.5 7 1.5Z" fill="white" stroke="#BBBBBB"/>
<path d="M20.5 2V6C20.5 6.82843 21.1716 7.5 22 7.5H26" stroke="#BBBBBB"/>
<path d="M16.4998 10.0215C17.5102 10.1059 18.4861 10.4453 19.3337 11.0117C20.3203 11.671 21.0896 12.6079 21.5437 13.7041C21.9978 14.8004 22.116 16.007 21.8845 17.1709C21.653 18.3347 21.082 19.4041 20.2429 20.2432C19.4038 21.0823 18.3345 21.6532 17.1707 21.8848C16.0068 22.1163 14.8002 21.998 13.7039 21.5439C12.6076 21.0899 11.6708 20.3205 11.0115 19.334C10.4451 18.4864 10.1057 17.5105 10.0212 16.5C9.99826 16.2249 10.2237 16.0002 10.4998 16H15.4998C15.7759 16 15.9998 15.7761 15.9998 15.5V10.5C15.9999 10.224 16.2247 9.99851 16.4998 10.0215ZM13.5007 9.02539C13.7754 8.99783 13.9996 9.22399 13.9998 9.5V13.5C13.9998 13.7761 13.7759 14 13.4998 14H9.49976C9.22374 13.9998 8.99759 13.7756 9.02515 13.501C9.07385 13.0157 9.19328 12.5392 9.38062 12.0869C9.63189 11.4803 10.0003 10.9291 10.4646 10.4648C10.9289 10.0006 11.48 9.63213 12.0867 9.38086C12.5389 9.19353 13.0154 9.0741 13.5007 9.02539Z" fill="#FAC299"/>
<path d="M16 18C16 16.8954 16.8954 16 18 16H26C27.1046 16 28 16.8954 28 18V26C28 27.1046 27.1046 28 26 28H18C16.8954 28 16 27.1046 16 26V18Z" fill="#F36700"/>
<path d="M22.0606 18.4596C22.9739 18.4596 23.6473 18.6596 24.0806 19.0596C24.5206 19.4529 24.7406 20.0029 24.7406 20.7096C24.7406 21.0296 24.6939 21.3363 24.6006 21.6296C24.5073 21.9163 24.3506 22.1729 24.1306 22.3996C23.9173 22.6263 23.6339 22.8063 23.2806 22.9396C22.9339 23.0729 22.5039 23.1396 21.9906 23.1396H21.3906V25.5996H19.6906V18.4596H22.0606ZM22.0006 19.8496H21.3906V21.7496H21.8406C22.0739 21.7496 22.2773 21.7163 22.4506 21.6496C22.6306 21.5829 22.7706 21.4763 22.8706 21.3296C22.9706 21.1829 23.0206 20.9929 23.0206 20.7596C23.0206 20.4663 22.9373 20.2429 22.7706 20.0896C22.6039 19.9296 22.3473 19.8496 22.0006 19.8496Z" fill="white"/>
</svg>
